<svg width="25" height="30" viewBox="0 0 25 30"  xmlns="http://www.w3.org/2000/svg">
<path d="M3.08453 16.2202L2.33932 16.1356H2.33932L3.08453 16.2202ZM3.68078 10.9668L4.426 11.0513L3.68078 10.9668ZM1.93054 18.8293L1.35944 18.3432H1.35944L1.93054 18.8293ZM21.661 16.1356C21.6143 15.724 21.2428 15.4283 20.8312 15.475C20.4196 15.5217 20.1239 15.8932 20.1706 16.3048L21.661 16.1356ZM22.0698 18.8293L21.4987 19.3155L22.0698 18.8293ZM8.97357 4.83139L9.21651 5.54095C9.51981 5.4371 9.72357 5.15197 9.72357 4.83139H8.97357ZM13.7284 3.21111C13.9982 3.52538 14.4717 3.56141 14.786 3.29159C15.1003 3.02176 15.1363 2.54826 14.8665 2.23399L13.7284 3.21111ZM16.7025 25.9297C16.8478 25.5418 16.6512 25.1096 16.2634 24.9642C15.8755 24.8188 15.4432 25.0154 15.2979 25.4033L16.7025 25.9297ZM8.70246 25.4033C8.5571 25.0154 8.12483 24.8188 7.73696 24.9642C7.34909 25.1096 7.1525 25.5418 7.29786 25.9297L8.70246 25.4033ZM23.2502 8.33317C23.2502 10.1281 21.7951 11.5832 20.0002 11.5832V13.0832C22.6235 13.0832 24.7502 10.9565 24.7502 8.33317H23.2502ZM20.0002 11.5832C18.2052 11.5832 16.7502 10.1281 16.7502 8.33317H15.2502C15.2502 10.9565 17.3768 13.0832 20.0002 13.0832V11.5832ZM16.7502 8.33317C16.7502 6.53825 18.2052 5.08317 20.0002 5.08317V3.58317C17.3768 3.58317 15.2502 5.70982 15.2502 8.33317H16.7502ZM20.0002 5.08317C21.7951 5.08317 23.2502 6.53825 23.2502 8.33317H24.7502C24.7502 5.70982 22.6235 3.58317 20.0002 3.58317V5.08317ZM19.7031 22.2498H4.29725V23.7498H19.7031V22.2498ZM3.82975 16.3048L4.426 11.0513L2.93557 10.8822L2.33932 16.1356L3.82975 16.3048ZM2.50165 19.3155C3.24085 18.4471 3.70469 17.4066 3.82975 16.3048L2.33932 16.1356C2.2496 16.9261 1.91532 17.6902 1.35944 18.3432L2.50165 19.3155ZM20.1706 16.3048C20.2956 17.4066 20.7595 18.4471 21.4987 19.3155L22.6409 18.3432C22.085 17.6902 21.7507 16.9261 21.661 16.1356L20.1706 16.3048ZM4.29725 22.2498C3.33748 22.2498 2.63479 21.7726 2.30348 21.1888C1.97957 20.618 1.98706 19.92 2.50165 19.3155L1.35944 18.3432C0.411326 19.457 0.383247 20.8442 0.998905 21.9291C1.60716 23.001 2.81918 23.7498 4.29725 23.7498V22.2498ZM19.7031 23.7498C21.1811 23.7498 22.3932 23.001 23.0014 21.9291C23.6171 20.8442 23.589 19.457 22.6409 18.3432L21.4987 19.3155C22.0133 19.92 22.0208 20.618 21.6968 21.1888C21.3655 21.7726 20.6628 22.2498 19.7031 22.2498V23.7498ZM9.72357 4.83139V4.6931H8.22357V4.83139H9.72357ZM4.426 11.0513C4.70939 8.55439 6.58525 6.44186 9.21651 5.54095L8.73062 4.12182C5.64882 5.177 3.29519 7.71364 2.93557 10.8822L4.426 11.0513ZM12.0002 0.916504C9.91441 0.916504 8.22357 2.60734 8.22357 4.6931H9.72357C9.72357 3.43577 10.7428 2.4165 12.0002 2.4165V0.916504ZM12.0002 2.4165C12.6912 2.4165 13.3097 2.72347 13.7284 3.21111L14.8665 2.23399C14.175 1.4286 13.147 0.916504 12.0002 0.916504V2.4165ZM15.2979 25.4033C14.8296 26.6528 13.5464 27.5832 12.0002 27.5832V29.0832C14.1473 29.0832 16.0062 27.7874 16.7025 25.9297L15.2979 25.4033ZM12.0002 27.5832C10.4539 27.5832 9.17074 26.6528 8.70246 25.4033L7.29786 25.9297C7.99408 27.7874 9.85301 29.0832 12.0002 29.0832V27.5832Z" fill="currentColor"/>
</svg>
