<svg width="25" height="30" viewBox="0 0 25 30" fill="none" xmlns="http://www.w3.org/2000/svg">
<path d="M3.08404 16.2207L2.33883 16.1361H2.33883L3.08404 16.2207ZM3.68029 10.9672L4.42551 11.0518L3.68029 10.9672ZM1.93006 18.8298L1.35895 18.3437H1.35895L1.93006 18.8298ZM21.6605 16.1361C21.6138 15.7245 21.2423 15.4287 20.8307 15.4755C20.4192 15.5222 20.1234 15.8937 20.1701 16.3052L21.6605 16.1361ZM22.0693 18.8298L21.4982 19.316L22.0693 18.8298ZM8.97308 4.83187L9.21603 5.54144C9.51932 5.43759 9.72308 5.15246 9.72308 4.83187H8.97308ZM13.7279 3.2116C13.9977 3.52587 14.4713 3.5619 14.7855 3.29208C15.0998 3.02225 15.1358 2.54875 14.866 2.23447L13.7279 3.2116ZM16.702 25.9302C16.8473 25.5423 16.6507 25.1101 16.2629 24.9647C15.875 24.8193 15.4427 25.0159 15.2974 25.4038L16.702 25.9302ZM8.70197 25.4038C8.55661 25.0159 8.12434 24.8193 7.73647 24.9647C7.3486 25.1101 7.15201 25.5423 7.29738 25.9302L8.70197 25.4038ZM23.2497 8.33366C23.2497 10.1286 21.7946 11.5837 19.9997 11.5837V13.0837C22.623 13.0837 24.7497 10.957 24.7497 8.33366H23.2497ZM19.9997 11.5837C18.2047 11.5837 16.7497 10.1286 16.7497 8.33366H15.2497C15.2497 10.957 17.3763 13.0837 19.9997 13.0837V11.5837ZM16.7497 8.33366C16.7497 6.53873 18.2047 5.08366 19.9997 5.08366V3.58366C17.3763 3.58366 15.2497 5.71031 15.2497 8.33366H16.7497ZM19.9997 5.08366C21.7946 5.08366 23.2497 6.53873 23.2497 8.33366H24.7497C24.7497 5.71031 22.623 3.58366 19.9997 3.58366V5.08366ZM19.7026 22.2503H4.29676V23.7503H19.7026V22.2503ZM3.82926 16.3052L4.42551 11.0518L2.93508 10.8827L2.33883 16.1361L3.82926 16.3052ZM2.50116 19.316C3.24036 18.4476 3.7042 17.4071 3.82926 16.3052L2.33883 16.1361C2.24911 16.9266 1.91483 17.6906 1.35895 18.3437L2.50116 19.316ZM20.1701 16.3052C20.2951 17.4071 20.759 18.4476 21.4982 19.316L22.6404 18.3437C22.0845 17.6906 21.7502 16.9266 21.6605 16.1361L20.1701 16.3052ZM4.29676 22.2503C3.33699 22.2503 2.6343 21.7731 2.30299 21.1893C1.97908 20.6185 1.98657 19.9205 2.50116 19.316L1.35895 18.3437C0.410838 19.4575 0.382759 20.8447 0.998416 21.9296C1.60667 23.0015 2.81869 23.7503 4.29676 23.7503V22.2503ZM19.7026 23.7503C21.1807 23.7503 22.3927 23.0015 23.0009 21.9296C23.6166 20.8447 23.5885 19.4575 22.6404 18.3437L21.4982 19.316C22.0128 19.9205 22.0203 20.6185 21.6964 21.1893C21.365 21.7731 20.6624 22.2503 19.7026 22.2503V23.7503ZM9.72308 4.83187V4.69359H8.22308V4.83187H9.72308ZM4.42551 11.0518C4.70891 8.55488 6.58477 6.44235 9.21603 5.54144L8.73013 4.12231C5.64834 5.17748 3.2947 7.71413 2.93508 10.8827L4.42551 11.0518ZM11.9997 0.916992C9.91392 0.916992 8.22308 2.60783 8.22308 4.69359H9.72308C9.72308 3.43626 10.7423 2.41699 11.9997 2.41699V0.916992ZM11.9997 2.41699C12.6907 2.41699 13.3093 2.72396 13.7279 3.2116L14.866 2.23447C14.1745 1.42909 13.1465 0.916992 11.9997 0.916992V2.41699ZM15.2974 25.4038C14.8291 26.6533 13.5459 27.5837 11.9997 27.5837V29.0837C14.1468 29.0837 16.0058 27.7879 16.702 25.9302L15.2974 25.4038ZM11.9997 27.5837C10.4534 27.5837 9.17025 26.6533 8.70197 25.4038L7.29738 25.9302C7.99359 27.7879 9.85252 29.0837 11.9997 29.0837V27.5837Z" fill="currentColor"/>
</svg>
