<svg width="30" height="26" viewBox="0 0 30 26" fill="none" xmlns="http://www.w3.org/2000/svg">
<path d="M15.0003 5.07116V24.07M5.66699 8.00619C7.35469 8.26756 9.23736 8.70209 11.0003 9.38383M5.66699 13.3395C6.51964 13.4716 7.42206 13.6478 8.33366 13.8778M4.3261 1.01503C7.28393 1.34926 11.2578 2.24843 14.0894 4.2326C14.6336 4.61394 15.367 4.61394 15.9112 4.2326C18.7428 2.24843 22.7167 1.34926 25.6746 1.01503C27.1384 0.849613 28.3337 2.07203 28.3337 3.58024V18.5999C28.3337 20.1081 27.1384 21.331 25.6746 21.4964C22.7167 21.8307 18.7428 22.7298 15.9112 24.714C15.367 25.0953 14.6336 25.0953 14.0894 24.714C11.2578 22.7298 7.28393 21.8307 4.3261 21.4964C2.86222 21.331 1.66699 20.1081 1.66699 18.5999V3.58024C1.66699 2.07203 2.86222 0.849613 4.3261 1.01503Z" stroke="currentColor" stroke-width="1.5" stroke-linecap="round"/>
</svg>
