<svg width="18" height="21" viewBox="0 0 18 21" fill="none" xmlns="http://www.w3.org/2000/svg">
<path d="M12 8.26636L10.7071 9.55925C10.3166 9.94978 10.3166 10.5829 10.7071 10.9735L12 12.2664M11 10.2664L17 10.2664M1 15.2663V5.26633M13 15.2663C13 16.3709 12.1046 17.2663 11 17.2663H7M13 5.26633C13 4.16176 12.1046 3.26633 11 3.26633H7M1.8906 17.8601L3.8906 19.1934C5.21971 20.0795 7 19.1267 7 17.5293V3.00336C7 1.40597 5.21971 0.453189 3.8906 1.33926L1.8906 2.6726C1.3342 3.04353 1 3.66799 1 4.3367V16.196C1 16.8647 1.3342 17.4891 1.8906 17.8601Z" stroke="currentColor" stroke-width="1.5" stroke-linecap="round"/>
</svg>
