<svg width="165" height="151" viewBox="0 0 165 151" fill="none" xmlns="http://www.w3.org/2000/svg">
<circle opacity="0.2" cx="82.5785" cy="82.8446" r="67.1556" fill="#8193F3"/>
<ellipse cx="19.632" cy="37.4997" rx="4.20918" ry="4.20918" fill="#ECF6EF"/>
<ellipse cx="105.921" cy="7.84439" rx="7.84439" ry="7.84439" fill="#ECF6EF"/>
<circle cx="25.9461" cy="136.416" r="7.46173" fill="#ECF6EF"/>
<circle cx="154.517" cy="118.814" r="7.46173" fill="#ECF6EF"/>
<circle cx="139.977" cy="127.232" r="3.6352" fill="#ECF6EF"/>
<path d="M87.9745 19.2868C87.3948 19.1635 87.3948 18.3361 87.9745 18.2128L89.5554 17.8766C89.7667 17.8317 89.932 17.667 89.9778 17.4559L90.3223 15.867C90.4474 15.2901 91.2703 15.2901 91.3954 15.867L91.74 17.4559C91.7857 17.667 91.951 17.8317 92.1623 17.8766L93.7432 18.2128C94.323 18.3361 94.323 19.1635 93.7432 19.2868L92.1623 19.623C91.951 19.6679 91.7857 19.8326 91.74 20.0437L91.3954 21.6326C91.2703 22.2095 90.4474 22.2095 90.3223 21.6326L89.9778 20.0437C89.932 19.8326 89.7667 19.6679 89.5554 19.623L87.9745 19.2868Z" fill="#8193F3"/>
<path d="M9.165 90.3363C9.38878 89.2791 10.8979 89.2791 11.1217 90.3363L11.7142 93.1356C11.7957 93.5205 12.0952 93.8219 12.4796 93.9056L15.3015 94.5204C16.351 94.749 16.351 96.2459 15.3015 96.4745L12.4796 97.0893C12.0952 97.173 11.7957 97.4744 11.7142 97.8593L11.1217 100.659C10.8979 101.716 9.38879 101.716 9.165 100.659L8.57247 97.8593C8.491 97.4744 8.19142 97.173 7.80701 97.0893L4.98513 96.4745C3.93561 96.2459 3.93561 94.749 4.98513 94.5204L7.80701 93.9056C8.19142 93.8219 8.491 93.5205 8.57247 93.1356L9.165 90.3363Z" fill="#8193F3"/>
<path d="M141.992 42.1219C142.216 41.0647 143.725 41.0647 143.949 42.1219L144.008 42.4036C144.09 42.7885 144.389 43.0898 144.774 43.1736L145.114 43.2477C146.164 43.4763 146.164 44.9732 145.114 45.2019L144.774 45.276C144.389 45.3597 144.09 45.6611 144.008 46.046L143.949 46.3276C143.725 47.3848 142.216 47.3848 141.992 46.3276L141.933 46.046C141.851 45.6611 141.552 45.3597 141.167 45.276L140.827 45.2019C139.777 44.9732 139.777 43.4763 140.827 43.2477L141.167 43.1736C141.552 43.0898 141.851 42.7885 141.933 42.4036L141.992 42.1219Z" fill="#8193F3"/>
<path d="M158.022 95.79L159.194 101.326L164.651 102.515L159.194 103.704L158.022 109.24L156.85 103.704L151.394 102.515L156.85 101.326L158.022 95.79Z" fill="white"/>
<path d="M120.653 52.4233L30.1553 87.0534L49.4793 140.816L61.1502 145.982L75.691 149.043L90.4231 148.469L99.0328 146.939L106.686 144.643L119.313 138.138L130.028 129.719L130.855 128.65C135.524 122.614 139.664 116.186 143.229 109.439L120.653 52.4233Z" fill="#ECF6EF"/>
<path d="M38.9487 80.0881L29.4218 75.7465L116.217 42.9933L111.131 53.0889L113.932 62.0893L42.122 89.4145L38.9487 80.0881Z" fill="#CBCFFF"/>
<path d="M48.5488 142.272V142.272C56.8453 145.594 65.7573 147.532 74.9607 148.016L75.5508 148.047L82.4703 147.691C87.4294 147.437 92.4046 146.725 97.3325 145.566L99.5091 145.054C104.62 143.852 109.631 142.04 114.431 139.659V139.659C118.378 137.701 122.158 135.371 125.717 132.702L126.762 131.918C129.513 129.854 132.114 127.585 134.537 125.133V125.133C138.133 121.496 141.316 117.479 144.015 113.173L146.107 109.837" stroke="#8193F3" stroke-width="4" stroke-linecap="round"/>
<path d="M30.125 95.043L48.0528 142.066" stroke="#8193F3" stroke-width="4" stroke-linecap="round"/>
<path d="M126.517 58.1357L146.052 108.981" stroke="#8193F3" stroke-width="4" stroke-linecap="round"/>
<path d="M27.9162 75.2752L117.499 41.6306" stroke="#8193F3" stroke-width="4" stroke-linecap="round"/>
<path d="M29.8619 94.5274L125.905 57.6232L113.687 52.9138C112.55 52.4753 112.066 51.1297 112.663 50.0671L117.183 42.0331" stroke="#8193F3" stroke-width="4" stroke-linecap="round" stroke-linejoin="round"/>
<path d="M28.5721 75.4065L36.8204 79.0647C37.9218 79.5531 38.3444 80.8973 37.7208 81.9281L30.3388 94.1309" stroke="#8193F3" stroke-width="4" stroke-linecap="round" stroke-linejoin="round"/>
<path d="M28.1113 75.7778L33.636 88.6367" stroke="#8193F3" stroke-width="4" stroke-linecap="round"/>
<path d="M38.0537 80.1099L42.2073 89.5805" stroke="#8193F3" stroke-width="4" stroke-linecap="round"/>
<path d="M112.329 52.6826L115.234 60.9282" stroke="#8193F3" stroke-width="4" stroke-linecap="round"/>
<path d="M116.888 43.0806L121.722 56.4838" stroke="#8193F3" stroke-width="4"/>
<ellipse cx="4.12525" cy="3.64022" rx="4.12525" ry="3.64022" transform="matrix(0.998684 -0.0512923 -0.0581266 0.998309 63.5312 84.5195)" fill="#CBCFFF"/>
<ellipse cx="2.94661" cy="2.60016" rx="2.94661" ry="2.60016" transform="matrix(0.998684 -0.0512923 -0.0581266 0.998309 59.8506 67.1104)" fill="#ECF6EF"/>
<ellipse cx="4.12525" cy="3.64022" rx="4.12525" ry="3.64022" transform="matrix(0.998684 -0.0512923 -0.0581266 0.998309 89.9307 74.5366)" fill="#CBCFFF"/>
<ellipse cx="2.94661" cy="2.60016" rx="2.94661" ry="2.60016" transform="matrix(0.998684 -0.0512923 -0.0581266 0.998309 78.2422 60.2993)" fill="#ECF6EF"/>
</svg>
