<svg width="30" height="25" viewBox="0 0 30 25" xmlns="http://www.w3.org/2000/svg">
<path d="M15.9132 3.66668L14.9998 4.60339L14.0865 3.6667C11.2452 0.752974 6.63867 0.752971 3.79744 3.66669C1.0325 6.50217 0.947548 11.0718 3.60508 14.0133L11.2402 22.4642C13.2686 24.7093 16.7311 24.7093 18.7595 22.4642L26.3946 14.0132C29.0521 11.0717 28.9672 6.50214 26.2022 3.66667C23.361 0.752953 18.7545 0.752956 15.9132 3.66668Z" fill="#EB5A5A"/>
<path d="M21.6665 5.66667C23.1392 5.66667 24.3331 6.86058 24.3331 8.33334M14.9998 4.60339L15.9132 3.66667C18.7545 0.752956 23.361 0.752953 26.2022 3.66667C28.9672 6.50214 29.0521 11.0717 26.3946 14.0132L18.7595 22.4642C16.7311 24.7093 13.2686 24.7093 11.2402 22.4642L3.60508 14.0133C0.947548 11.0718 1.0325 6.50217 3.79744 3.66669C6.63867 0.752971 11.2452 0.752974 14.0865 3.6667L14.9998 4.60339Z" stroke="#EB5A5A" stroke-width="1.5" stroke-linecap="round" stroke-linejoin="round"/>
</svg>
