<svg width="56" height="56" viewBox="0 0 56 56" fill="none" xmlns="http://www.w3.org/2000/svg">
<path d="M54.6668 33.3335L46.8295 27.6906C42.757 24.7584 37.1913 25.0614 33.4613 28.4185L22.5391 38.2485C18.809 41.6055 13.2434 41.9086 9.17085 38.9764L1.3335 33.3335M12.0002 54.6668H44.0002C49.8912 54.6668 54.6668 49.8912 54.6668 44.0002V12.0002C54.6668 6.10913 49.8912 1.3335 44.0002 1.3335H12.0002C6.10913 1.3335 1.3335 6.10913 1.3335 12.0002V44.0002C1.3335 49.8912 6.10913 54.6668 12.0002 54.6668ZM25.3335 18.6668C25.3335 22.3487 22.3487 25.3335 18.6668 25.3335C14.9849 25.3335 12.0002 22.3487 12.0002 18.6668C12.0002 14.9849 14.9849 12.0002 18.6668 12.0002C22.3487 12.0002 25.3335 14.9849 25.3335 18.6668Z" stroke="currentColor" stroke-width="1.5" stroke-linecap="round"/>
</svg>
