<svg width="25" height="43" viewBox="0 0 25 43" fill="none" xmlns="http://www.w3.org/2000/svg">
<path d="M8.5 30.2869V29.9091C8.52652 27.4432 8.77178 25.4811 9.2358 24.0227C9.71307 22.5644 10.3892 21.3845 11.2642 20.483C12.1392 19.5814 13.1932 18.7595 14.4261 18.017C15.2216 17.5133 15.9375 16.9498 16.5739 16.3267C17.2102 15.7036 17.714 14.9877 18.0852 14.179C18.4564 13.3703 18.642 12.4754 18.642 11.4943C18.642 10.3144 18.3636 9.29356 17.8068 8.43182C17.25 7.57007 16.5076 6.9072 15.5795 6.44318C14.6648 5.96591 13.6439 5.72727 12.517 5.72727C11.4962 5.72727 10.5218 5.93939 9.59375 6.36364C8.66572 6.78788 7.89678 7.45076 7.28693 8.35227C6.67708 9.24053 6.32576 10.3873 6.23295 11.7926H0.1875C0.280303 9.40625 0.883523 7.3911 1.99716 5.74716C3.1108 4.08996 4.58239 2.83712 6.41193 1.98863C8.25474 1.14015 10.2898 0.715908 12.517 0.715908C14.9564 0.715908 17.0909 1.17329 18.9205 2.08807C20.75 2.98958 22.1686 4.25568 23.1761 5.88636C24.197 7.50379 24.7074 9.39299 24.7074 11.554C24.7074 13.0388 24.4754 14.3778 24.0114 15.571C23.5473 16.7509 22.8845 17.8049 22.0227 18.733C21.1742 19.661 20.1534 20.483 18.9602 21.1989C17.8333 21.9015 16.9186 22.6307 16.2159 23.3864C15.5265 24.142 15.0227 25.0369 14.7045 26.071C14.3864 27.1051 14.214 28.3845 14.1875 29.9091V30.2869H8.5ZM11.5028 42.3778C10.4157 42.3778 9.48106 41.9934 8.69886 41.2244C7.91667 40.4422 7.52557 39.5009 7.52557 38.4006C7.52557 37.3134 7.91667 36.3854 8.69886 35.6165C9.48106 34.8343 10.4157 34.4432 11.5028 34.4432C12.5767 34.4432 13.5047 34.8343 14.2869 35.6165C15.0824 36.3854 15.4801 37.3134 15.4801 38.4006C15.4801 39.1297 15.2945 39.7992 14.9233 40.4091C14.5653 41.0057 14.0881 41.483 13.4915 41.8409C12.8949 42.1989 12.232 42.3778 11.5028 42.3778Z" fill="currentColor"/>
</svg>
