<svg width="3" height="13" viewBox="0 0 3 13" fill="none" xmlns="http://www.w3.org/2000/svg">
<path fill-rule="evenodd" clip-rule="evenodd" d="M0.459961 1.25C0.459961 0.559644 1.00841 0 1.68496 0C2.36151 0 2.90996 0.559644 2.90996 1.25C2.90996 1.94036 2.36151 2.5 1.68496 2.5C1.00841 2.5 0.459961 1.94036 0.459961 1.25ZM0.459961 6.25C0.459961 5.55964 1.00841 5 1.68496 5C2.36151 5 2.90996 5.55964 2.90996 6.25C2.90996 6.94036 2.36151 7.5 1.68496 7.5C1.00841 7.5 0.459961 6.94036 0.459961 6.25ZM1.68496 10C1.00841 10 0.459961 10.5596 0.459961 11.25C0.459961 11.9404 1.00841 12.5 1.68496 12.5C2.36151 12.5 2.90996 11.9404 2.90996 11.25C2.90996 10.5596 2.36151 10 1.68496 10Z" fill="currentColor"/>
</svg>
