<svg width="20" height="20" viewBox="0 0 20 20" fill="none" xmlns="http://www.w3.org/2000/svg">
<path d="M18.3327 9.99984V14.9998C18.3327 16.8408 16.8403 18.3332 14.9993 18.3332H4.99935C3.1584 18.3332 1.66602 16.8408 1.66602 14.9998V4.99984C1.66602 3.15889 3.1584 1.6665 4.99935 1.6665H9.99935M13.0713 3.35213C13.0713 3.35213 13.0713 4.54404 14.2632 5.73596C15.4551 6.92787 16.6471 6.92787 16.6471 6.92787M7.62824 13.3245L10.1313 12.9669C10.4923 12.9153 10.8269 12.748 11.0848 12.4901L17.839 5.73595C18.4973 5.07768 18.4973 4.0104 17.839 3.35213L16.6471 2.16021C15.9888 1.50193 14.9215 1.50193 14.2632 2.16021L7.50905 8.91439C7.25116 9.17229 7.08386 9.50687 7.03229 9.86792L6.67471 12.3709C6.59525 12.9272 7.07202 13.4039 7.62824 13.3245Z" stroke="currentColor" stroke-width="1.5" stroke-linecap="round"/>
</svg>
