<svg width="16" height="20" viewBox="0 0 16 20" fill="none" xmlns="http://www.w3.org/2000/svg">
<path d="M11.25 5C11.25 6.79493 9.79493 8.25 8 8.25V9.75C10.6234 9.75 12.75 7.62335 12.75 5H11.25ZM8 8.25C6.20507 8.25 4.75 6.79493 4.75 5H3.25C3.25 7.62335 5.37665 9.75 8 9.75V8.25ZM4.75 5C4.75 3.20507 6.20507 1.75 8 1.75V0.25C5.37665 0.25 3.25 2.37665 3.25 5H4.75ZM8 1.75C9.79493 1.75 11.25 3.20507 11.25 5H12.75C12.75 2.37665 10.6234 0.25 8 0.25V1.75ZM14.25 15.5C14.25 16.0294 13.8014 16.7105 12.6143 17.3041C11.4722 17.8751 9.84181 18.25 8 18.25V19.75C10.0242 19.75 11.8938 19.3414 13.2852 18.6457C14.6316 17.9725 15.75 16.9036 15.75 15.5H14.25ZM8 18.25C6.15819 18.25 4.52782 17.8751 3.38566 17.3041C2.19864 16.7105 1.75 16.0294 1.75 15.5H0.25C0.25 16.9036 1.36836 17.9725 2.71484 18.6457C4.10618 19.3414 5.97582 19.75 8 19.75V18.25ZM1.75 15.5C1.75 14.9706 2.19864 14.2895 3.38566 13.6959C4.52782 13.1249 6.15819 12.75 8 12.75V11.25C5.97582 11.25 4.10618 11.6586 2.71484 12.3543C1.36836 13.0275 0.25 14.0964 0.25 15.5H1.75ZM8 12.75C9.84181 12.75 11.4722 13.1249 12.6143 13.6959C13.8014 14.2895 14.25 14.9706 14.25 15.5H15.75C15.75 14.0964 14.6316 13.0275 13.2852 12.3543C11.8938 11.6586 10.0242 11.25 8 11.25V12.75Z" fill="currentColor"/>
</svg>
