<svg width="20" height="22" viewBox="0 0 20 22" fill="none" xmlns="http://www.w3.org/2000/svg">
<path d="M8 7.99997C8 6.8954 8.89543 5.99997 10 5.99997C11.1046 5.99997 12 6.8954 12 7.99997C12 8.39812 11.8837 8.7691 11.6831 9.08076C11.0854 10.0096 10 10.8954 10 12V12.5M10 15V16M1 8.13192V13.8681C1 15.3914 1.7923 16.799 3.07846 17.5607L7.92154 20.4288C9.20769 21.1904 10.7923 21.1904 12.0785 20.4288L16.9215 17.5607C18.2077 16.799 19 15.3914 19 13.8681V8.13192C19 6.6086 18.2077 5.20099 16.9215 4.43932L12.0785 1.57125C10.7923 0.809584 9.20769 0.809584 7.92154 1.57125L3.07846 4.43932C1.7923 5.20099 1 6.6086 1 8.13192Z" stroke="currentColor" stroke-width="1.5" stroke-linecap="round"/>
</svg>
