<svg width="24" height="26" viewBox="0 0 24 26" fill="none" xmlns="http://www.w3.org/2000/svg">
<path d="M7.33333 7.16683H12M7.33333 11.8335H16.6667M7.33333 16.5002H16.6667M3.83333 1.3335H20.1667C21.4553 1.3335 22.5 2.37817 22.5 3.66683V21.3469C22.5 22.963 20.8969 24.0897 19.3763 23.5423L17.5543 22.8864C16.9849 22.6814 16.3582 22.7056 15.8064 22.9539L12.9575 24.2359C12.3486 24.51 11.6514 24.51 11.0425 24.2359L8.1936 22.9539C7.64179 22.7056 7.01508 22.6814 6.44574 22.8864L4.62368 23.5423C3.10314 24.0897 1.5 22.963 1.5 21.3469V3.66683C1.5 2.37817 2.54467 1.3335 3.83333 1.3335Z" stroke="currentColor" stroke-width="1.5" stroke-linecap="round"/>
</svg>
