<svg viewBox="0 0 22 22" fill="none" xmlns="http://www.w3.org/2000/svg">
<path d="M17 1V5M17 5V9M17 5H13M17 5H21M3 9H7C8.10457 9 9 8.10457 9 7V3C9 1.89543 8.10457 1 7 1H3C1.89543 1 1 1.89543 1 3V7C1 8.10457 1.89543 9 3 9ZM9 17C9 19.2091 7.20914 21 5 21C2.79086 21 1 19.2091 1 17C1 14.7909 2.79086 13 5 13C7.20914 13 9 14.7909 9 17ZM15 21H19C20.1046 21 21 20.1046 21 19V15C21 13.8954 20.1046 13 19 13H15C13.8954 13 13 13.8954 13 15V19C13 20.1046 13.8954 21 15 21Z" stroke="currentColor" stroke-width="1.5" stroke-linecap="round"/>
</svg>
